<?xml version="1.0" encoding="UTF-8" standalone="no"?>
<!DOCTYPE svg PUBLIC "-//W3C//DTD SVG 1.1//EN" "http://www.w3.org/Graphics/SVG/1.1/DTD/svg11.dtd">
<svg width="100%" height="100%" viewBox="0 0 1090 227" version="1.1" xmlns="http://www.w3.org/2000/svg" xmlns:xlink="http://www.w3.org/1999/xlink" xml:space="preserve" xmlns:serif="http://www.serif.com/" style="fill-rule:evenodd;clip-rule:evenodd;stroke-linejoin:round;stroke-miterlimit:2;">
    <g transform="matrix(0.615325,0,0,0.615325,-14595.4,-690.602)">
        <g transform="matrix(486.689,0,0,486.689,23707.6,1381.23)">
            <path d="M0.025,-0.254C0.025,-0.095 0.139,0.007 0.282,0.007C0.419,0.007 0.505,-0.08 0.554,-0.187L0.548,-0.19C0.512,-0.135 0.448,-0.116 0.398,-0.116C0.299,-0.116 0.207,-0.192 0.207,-0.333C0.207,-0.405 0.231,-0.524 0.315,-0.524C0.361,-0.524 0.393,-0.487 0.393,-0.445C0.393,-0.418 0.38,-0.394 0.358,-0.384C0.361,-0.327 0.402,-0.3 0.447,-0.3C0.495,-0.3 0.541,-0.329 0.541,-0.393C0.541,-0.502 0.409,-0.532 0.32,-0.532C0.147,-0.532 0.025,-0.418 0.025,-0.254L0.025,-0.254Z" style="fill-rule:nonzero;"/>
        </g>
        <g transform="matrix(486.689,0,0,486.689,23984.5,1381.23)">
            <path d="M0.315,-0.532C0.152,-0.532 0.025,-0.418 0.025,-0.262C0.025,-0.107 0.152,0.007 0.315,0.007C0.479,0.007 0.606,-0.107 0.606,-0.262C0.606,-0.418 0.479,-0.532 0.315,-0.532ZM0.315,-0.001C0.228,-0.001 0.228,-0.145 0.228,-0.262C0.228,-0.376 0.228,-0.524 0.315,-0.524C0.403,-0.524 0.403,-0.376 0.403,-0.262C0.403,-0.145 0.403,-0.001 0.315,-0.001Z" style="fill-rule:nonzero;"/>
        </g>
        <g transform="matrix(486.689,0,0,486.689,24291.6,1381.23)">
            <path d="M0.315,-0.532C0.152,-0.532 0.025,-0.418 0.025,-0.262C0.025,-0.107 0.152,0.007 0.315,0.007C0.479,0.007 0.606,-0.107 0.606,-0.262C0.606,-0.418 0.479,-0.532 0.315,-0.532ZM0.315,-0.001C0.228,-0.001 0.228,-0.145 0.228,-0.262C0.228,-0.376 0.228,-0.524 0.315,-0.524C0.403,-0.524 0.403,-0.376 0.403,-0.262C0.403,-0.145 0.403,-0.001 0.315,-0.001Z" style="fill-rule:nonzero;"/>
        </g>
        <g transform="matrix(486.689,0,0,486.689,24598.7,1381.23)">
            <path d="M0.096,0.091C0.096,0.198 0.087,0.218 0.009,0.218L0.009,0.225L0.388,0.225L0.388,0.218C0.286,0.218 0.283,0.198 0.281,0.091L0.279,-0.004C0.301,0.002 0.325,0.007 0.35,0.007C0.524,0.007 0.638,-0.135 0.638,-0.294C0.638,-0.436 0.546,-0.532 0.44,-0.532C0.374,-0.532 0.326,-0.495 0.28,-0.424L0.283,-0.532L-0.005,-0.455L-0.003,-0.448C0.082,-0.468 0.096,-0.441 0.096,-0.374L0.096,0.091ZM0.281,-0.413C0.306,-0.451 0.333,-0.482 0.362,-0.482C0.442,-0.482 0.442,-0.313 0.442,-0.264C0.442,-0.079 0.413,-0.001 0.343,-0.001C0.285,-0.001 0.281,-0.033 0.281,-0.114L0.281,-0.413Z" style="fill-rule:nonzero;"/>
        </g>
        <g transform="matrix(486.689,0,0,486.689,24921.4,1381.23)">
            <path d="M0.55,-0.32C0.582,-0.447 0.491,-0.532 0.326,-0.532C0.163,-0.532 0.025,-0.425 0.025,-0.265C0.025,-0.105 0.129,0.007 0.292,0.007C0.435,0.007 0.525,-0.086 0.572,-0.205L0.566,-0.208C0.531,-0.15 0.477,-0.112 0.398,-0.112C0.268,-0.112 0.213,-0.215 0.213,-0.32L0.55,-0.32ZM0.31,-0.524C0.39,-0.524 0.389,-0.392 0.373,-0.33L0.213,-0.33C0.214,-0.4 0.239,-0.524 0.31,-0.524Z" style="fill-rule:nonzero;"/>
        </g>
        <g transform="matrix(486.689,0,0,486.689,25207.1,1381.23)">
            <path d="M0.283,-0.532L-0.005,-0.455L-0.003,-0.448C0.082,-0.468 0.096,-0.441 0.096,-0.374L0.096,-0.134C0.096,-0.027 0.087,-0.007 0.009,-0.007L0.009,-0L0.388,-0L0.388,-0.007C0.286,-0.007 0.281,-0.027 0.281,-0.134L0.281,-0.375C0.3,-0.434 0.336,-0.507 0.391,-0.507C0.419,-0.507 0.433,-0.476 0.433,-0.447C0.433,-0.416 0.417,-0.382 0.383,-0.374C0.386,-0.317 0.427,-0.29 0.472,-0.29C0.537,-0.29 0.581,-0.349 0.581,-0.408C0.581,-0.49 0.508,-0.532 0.44,-0.532C0.345,-0.532 0.304,-0.463 0.28,-0.396L0.283,-0.532Z" style="fill-rule:nonzero;"/>
        </g>
    </g>
</svg>
